<svg width="825" height="1007" viewBox="0 0 825 1007" fill="none" xmlns="http://www.w3.org/2000/svg">
<g opacity="0.3">
<path d="M824.5 272C824.5 677.659 499.677 1006.5 99 1006.5C-301.677 1006.5 -626.5 677.659 -626.5 272C-626.5 -133.659 -301.677 -462.5 99 -462.5C499.677 -462.5 824.5 -133.659 824.5 272Z" stroke="black"/>
<path d="M824.5 272C824.5 677.659 499.677 1006.5 99 1006.5C-301.677 1006.5 -626.5 677.659 -626.5 272C-626.5 -133.659 -301.677 -462.5 99 -462.5C499.677 -462.5 824.5 -133.659 824.5 272Z" stroke="black"/>
<path d="M664.78 268.325C664.78 582.65 413.091 837.45 102.63 837.45C-207.831 837.45 -459.52 582.65 -459.52 268.325C-459.52 -45.9999 -207.831 -300.8 102.63 -300.8C413.091 -300.8 664.78 -45.9999 664.78 268.325Z" fill="#343434" stroke="#0671E0"/>
<path d="M461.5 272C461.5 474.694 299.197 639 99 639C-101.197 639 -263.5 474.694 -263.5 272C-263.5 69.3057 -101.197 -95 99 -95C299.197 -95 461.5 69.3057 461.5 272Z" fill="#666666" stroke="#0671E0"/>
<ellipse cx="99" cy="272" rx="181.5" ry="183.75" fill="#3A3A3A"/>
</g>
</svg>
