<svg width="1440" height="557" viewBox="0 0 1440 557" fill="none" xmlns="http://www.w3.org/2000/svg">
<mask id="mask0_146_533" style="mask-type:alpha" maskUnits="userSpaceOnUse" x="0" y="0" width="1440" height="557">
<rect width="1440" height="557" fill="#2A2A2A"/>
</mask>
<g mask="url(#mask0_146_533)">
<g opacity="0.2">
<circle cx="1160" cy="397" r="704.5" fill="#CBCBCB" stroke="#545353"/>
<circle cx="1160.38" cy="367.375" r="545.875" fill="#969696" stroke="#969696"/>
<circle cx="1160" cy="397" r="352" fill="#686868" stroke="#545353"/>
<circle cx="1160" cy="397" r="176.25" fill="#3A3A3A"/>
</g>
<path d="M562.936 270.064H546.168L543.48 278H532.024L548.28 233.072H560.952L577.208 278H565.624L562.936 270.064ZM560.12 261.616L554.552 245.168L549.048 261.616H560.12ZM593.1 230.64V278H582.156V230.64H593.1ZM636.295 242.288V278H625.351V273.136C624.241 274.715 622.727 275.995 620.807 276.976C618.929 277.915 616.839 278.384 614.535 278.384C611.804 278.384 609.393 277.787 607.303 276.592C605.212 275.355 603.591 273.584 602.439 271.28C601.287 268.976 600.711 266.267 600.711 263.152V242.288H611.591V261.68C611.591 264.069 612.209 265.925 613.447 267.248C614.684 268.571 616.348 269.232 618.439 269.232C620.572 269.232 622.257 268.571 623.495 267.248C624.732 265.925 625.351 264.069 625.351 261.68V242.288H636.295ZM655.1 248.24C656.38 246.277 657.98 244.741 659.9 243.632C661.82 242.48 663.953 241.904 666.3 241.904V253.488H663.292C660.561 253.488 658.513 254.085 657.148 255.28C655.782 256.432 655.1 258.48 655.1 261.424V278H644.156V242.288H655.1V248.24ZM701.349 278.448C698.064 278.448 695.12 277.915 692.517 276.848C689.914 275.781 687.824 274.203 686.245 272.112C684.709 270.021 683.898 267.504 683.813 264.56H695.461C695.632 266.224 696.208 267.504 697.189 268.4C698.17 269.253 699.45 269.68 701.029 269.68C702.65 269.68 703.93 269.317 704.869 268.592C705.808 267.824 706.277 266.779 706.277 265.456C706.277 264.347 705.893 263.429 705.125 262.704C704.4 261.979 703.482 261.381 702.373 260.912C701.306 260.443 699.77 259.909 697.765 259.312C694.864 258.416 692.496 257.52 690.661 256.624C688.826 255.728 687.248 254.405 685.925 252.656C684.602 250.907 683.941 248.624 683.941 245.808C683.941 241.627 685.456 238.363 688.485 236.016C691.514 233.627 695.461 232.432 700.325 232.432C705.274 232.432 709.264 233.627 712.293 236.016C715.322 238.363 716.944 241.648 717.157 245.872H705.317C705.232 244.421 704.698 243.291 703.717 242.48C702.736 241.627 701.477 241.2 699.941 241.2C698.618 241.2 697.552 241.563 696.741 242.288C695.93 242.971 695.525 243.973 695.525 245.296C695.525 246.747 696.208 247.877 697.573 248.688C698.938 249.499 701.072 250.373 703.973 251.312C706.874 252.293 709.221 253.232 711.013 254.128C712.848 255.024 714.426 256.325 715.749 258.032C717.072 259.739 717.733 261.936 717.733 264.624C717.733 267.184 717.072 269.509 715.749 271.6C714.469 273.691 712.592 275.355 710.117 276.592C707.642 277.829 704.72 278.448 701.349 278.448ZM729.972 238.576C728.052 238.576 726.473 238.021 725.236 236.912C724.041 235.76 723.444 234.352 723.444 232.688C723.444 230.981 724.041 229.573 725.236 228.464C726.473 227.312 728.052 226.736 729.972 226.736C731.849 226.736 733.385 227.312 734.58 228.464C735.817 229.573 736.436 230.981 736.436 232.688C736.436 234.352 735.817 235.76 734.58 236.912C733.385 238.021 731.849 238.576 729.972 238.576ZM735.412 242.288V278H724.468V242.288H735.412ZM757.871 278.512C754.756 278.512 751.983 277.979 749.551 276.912C747.119 275.845 745.199 274.395 743.791 272.56C742.383 270.683 741.594 268.592 741.423 266.288H752.239C752.367 267.525 752.943 268.528 753.967 269.296C754.991 270.064 756.25 270.448 757.743 270.448C759.108 270.448 760.154 270.192 760.879 269.68C761.647 269.125 762.031 268.421 762.031 267.568C762.031 266.544 761.498 265.797 760.431 265.328C759.364 264.816 757.636 264.261 755.247 263.664C752.687 263.067 750.554 262.448 748.847 261.808C747.14 261.125 745.668 260.08 744.431 258.672C743.194 257.221 742.575 255.28 742.575 252.848C742.575 250.8 743.13 248.944 744.239 247.28C745.391 245.573 747.055 244.229 749.231 243.248C751.45 242.267 754.074 241.776 757.103 241.776C761.583 241.776 765.103 242.885 767.663 245.104C770.266 247.323 771.759 250.267 772.143 253.936H762.031C761.86 252.699 761.306 251.717 760.367 250.992C759.471 250.267 758.276 249.904 756.783 249.904C755.503 249.904 754.522 250.16 753.839 250.672C753.156 251.141 752.815 251.803 752.815 252.656C752.815 253.68 753.348 254.448 754.415 254.96C755.524 255.472 757.231 255.984 759.535 256.496C762.18 257.179 764.335 257.861 765.999 258.544C767.663 259.184 769.114 260.251 770.351 261.744C771.631 263.195 772.292 265.157 772.335 267.632C772.335 269.723 771.738 271.6 770.543 273.264C769.391 274.885 767.706 276.165 765.487 277.104C763.311 278.043 760.772 278.512 757.871 278.512ZM798.935 268.72V278H793.367C789.399 278 786.305 277.04 784.087 275.12C781.868 273.157 780.759 269.979 780.759 265.584V251.376H776.407V242.288H780.759V233.584H791.703V242.288H798.871V251.376H791.703V265.712C791.703 266.779 791.959 267.547 792.471 268.016C792.983 268.485 793.836 268.72 795.031 268.72H798.935ZM838.694 259.568C838.694 260.592 838.631 261.659 838.503 262.768H813.735C813.905 264.987 814.609 266.693 815.847 267.888C817.127 269.04 818.684 269.616 820.519 269.616C823.249 269.616 825.148 268.464 826.215 266.16H837.863C837.265 268.507 836.177 270.619 834.599 272.496C833.063 274.373 831.121 275.845 828.775 276.912C826.428 277.979 823.804 278.512 820.903 278.512C817.404 278.512 814.289 277.765 811.559 276.272C808.828 274.779 806.695 272.645 805.159 269.872C803.623 267.099 802.855 263.856 802.855 260.144C802.855 256.432 803.601 253.189 805.095 250.416C806.631 247.643 808.764 245.509 811.495 244.016C814.225 242.523 817.361 241.776 820.903 241.776C824.359 241.776 827.431 242.501 830.119 243.952C832.807 245.403 834.897 247.472 836.391 250.16C837.927 252.848 838.694 255.984 838.694 259.568ZM827.495 256.688C827.495 254.811 826.855 253.317 825.575 252.208C824.295 251.099 822.695 250.544 820.775 250.544C818.94 250.544 817.383 251.077 816.103 252.144C814.865 253.211 814.097 254.725 813.799 256.688H827.495ZM890.036 241.904C894.473 241.904 897.993 243.248 900.596 245.936C903.241 248.624 904.564 252.357 904.564 257.136V278H893.684V258.608C893.684 256.304 893.065 254.533 891.828 253.296C890.633 252.016 888.969 251.376 886.836 251.376C884.703 251.376 883.017 252.016 881.78 253.296C880.585 254.533 879.988 256.304 879.988 258.608V278H869.108V258.608C869.108 256.304 868.489 254.533 867.252 253.296C866.057 252.016 864.393 251.376 862.26 251.376C860.127 251.376 858.441 252.016 857.204 253.296C856.009 254.533 855.412 256.304 855.412 258.608V278H844.468V242.288H855.412V246.768C856.521 245.275 857.972 244.101 859.764 243.248C861.556 242.352 863.583 241.904 865.844 241.904C868.532 241.904 870.921 242.48 873.012 243.632C875.145 244.784 876.809 246.427 878.004 248.56C879.241 246.597 880.927 244.997 883.06 243.76C885.193 242.523 887.519 241.904 890.036 241.904Z" fill="white"/>
</g>
</svg>
