<svg width="49" height="49" viewBox="0 0 49 49" fill="none" xmlns="http://www.w3.org/2000/svg">
<rect width="49" height="49" rx="8" fill="#EEF5FC"/>
<path d="M22.4999 36C22.0749 36 21.7184 35.856 21.4304 35.568C21.1424 35.28 20.9989 34.924 20.9999 34.5V25.5L12.2999 14.4C11.9249 13.9 11.8684 13.375 12.1304 12.825C12.3924 12.275 12.8489 12 13.4999 12H34.4999C35.1499 12 35.6064 12.275 35.8694 12.825C36.1324 13.375 36.0759 13.9 35.6999 14.4L26.9999 25.5V34.5C26.9999 34.925 26.8559 35.2815 26.5679 35.5695C26.2799 35.8575 25.9239 36.001 25.4999 36H22.4999Z" fill="#ED6948"/>
</svg>
