<svg width="639" height="1088" viewBox="0 0 639 1088" fill="none" xmlns="http://www.w3.org/2000/svg">
<g filter="url(#filter0_d_68_470)">
<path d="M459.338 1247.5L434.388 1047.9C420.873 1042.7 408.128 1036.46 396.152 1029.19C384.176 1021.91 372.491 1014.11 361.097 1005.8L175.531 1083.77L4 787.484L164.616 665.853C163.576 658.576 163.056 651.548 163.056 644.77V602.73C163.056 595.952 163.576 588.924 164.616 581.647L4 460.016L175.531 163.734L361.097 241.703C372.532 233.386 384.488 225.59 396.963 218.312C409.438 211.035 421.913 204.798 434.388 199.6L459.338 0H802.4L827.35 199.6C840.865 204.798 853.61 211.035 865.586 218.312C877.562 225.59 889.247 233.386 900.641 241.703L1086.21 163.734L1257.74 460.016L1097.12 581.647C1098.16 588.924 1098.68 595.952 1098.68 602.73V644.77C1098.68 651.548 1097.64 658.576 1095.56 665.853L1256.18 787.484L1084.65 1083.77L900.641 1005.8C889.205 1014.11 877.25 1021.91 864.775 1029.19C852.3 1036.46 839.825 1042.7 827.35 1047.9L802.4 1247.5H459.338ZM633.988 842.062C694.283 842.062 745.743 820.751 788.366 778.128C830.989 735.505 852.3 684.046 852.3 623.75C852.3 563.454 830.989 511.995 788.366 469.372C745.743 426.749 694.283 405.438 633.988 405.438C572.652 405.438 520.922 426.749 478.799 469.372C436.675 511.995 415.633 563.454 415.675 623.75C415.675 684.046 436.716 735.505 478.799 778.128C520.881 820.751 572.611 842.062 633.988 842.062Z" fill="#575757"/>
</g>
<defs>
<filter id="filter0_d_68_470" x="0" y="0" width="1261.74" height="1255.5" filterUnits="userSpaceOnUse" color-interpolation-filters="sRGB">
<feFlood flood-opacity="0" result="BackgroundImageFix"/>
<feColorMatrix in="SourceAlpha" type="matrix" values="0 0 0 0 0 0 0 0 0 0 0 0 0 0 0 0 0 0 127 0" result="hardAlpha"/>
<feOffset dy="4"/>
<feGaussianBlur stdDeviation="2"/>
<feComposite in2="hardAlpha" operator="out"/>
<feColorMatrix type="matrix" values="0 0 0 0 0 0 0 0 0 0 0 0 0 0 0 0 0 0 0.25 0"/>
<feBlend mode="normal" in2="BackgroundImageFix" result="effect1_dropShadow_68_470"/>
<feBlend mode="normal" in="SourceGraphic" in2="effect1_dropShadow_68_470" result="shape"/>
</filter>
</defs>
</svg>
