<svg width="870" height="1249" viewBox="0 0 870 1249" fill="none" xmlns="http://www.w3.org/2000/svg">
<path d="M70.9688 1248.25L46.0188 1048.65C32.5042 1043.45 19.7589 1037.21 7.7829 1029.94C-4.19312 1022.66 -15.8781 1014.86 -27.2719 1006.55L-212.838 1084.52L-384.369 788.234L-223.753 666.603C-224.793 659.326 -225.313 652.298 -225.313 645.52V603.48C-225.313 596.702 -224.793 589.674 -223.753 582.397L-384.369 460.766L-212.838 164.484L-27.2719 242.453C-15.8365 234.136 -3.88126 226.34 8.59375 219.062C21.0687 211.785 33.5438 205.548 46.0188 200.35L70.9688 0.75H414.031L438.981 200.35C452.496 205.548 465.241 211.785 477.217 219.062C489.193 226.34 500.878 234.136 512.272 242.453L697.837 164.484L869.369 460.766L708.753 582.397C709.793 589.674 710.312 596.702 710.312 603.48V645.52C710.312 652.298 709.273 659.326 707.194 666.603L867.809 788.234L696.278 1084.52L512.272 1006.55C500.836 1014.86 488.881 1022.66 476.406 1029.94C463.931 1037.21 451.456 1043.45 438.981 1048.65L414.031 1248.25H70.9688ZM245.619 842.812C305.915 842.812 357.374 821.501 399.997 778.878C442.62 736.255 463.931 684.796 463.931 624.5C463.931 564.204 442.62 512.745 399.997 470.122C357.374 427.499 305.915 406.188 245.619 406.188C184.283 406.188 132.554 427.499 90.4297 470.122C48.3058 512.745 27.2647 564.204 27.3062 624.5C27.3062 684.796 48.3474 736.255 90.4297 778.878C132.512 821.501 184.242 842.812 245.619 842.812Z" fill="#3A3A3A"/>
</svg>
