<svg width="24" height="24" viewBox="0 0 24 24" fill="none" xmlns="http://www.w3.org/2000/svg">
<path d="M2 18V15.2C2 14.6334 2.146 14.1124 2.438 13.637C2.73 13.1617 3.11733 12.7994 3.6 12.55C4.63333 12.0334 5.68333 11.6457 6.75 11.387C7.81667 11.1284 8.9 10.9994 10 11C11.1 11 12.1833 11.1294 13.25 11.388C14.3167 11.6467 15.3667 12.034 16.4 12.55C16.8833 12.8 17.271 13.1627 17.563 13.638C17.855 14.1134 18.0007 14.634 18 15.2V18H2ZM20 18V15C20 14.2667 19.7957 13.5624 19.387 12.887C18.9783 12.2117 18.3993 11.6327 17.65 11.15C18.5 11.25 19.3 11.421 20.05 11.663C20.8 11.905 21.5 12.2007 22.15 12.55C22.75 12.8834 23.2083 13.254 23.525 13.662C23.8417 14.07 24 14.516 24 15V18H20ZM10 10C8.9 10 7.95833 9.60836 7.175 8.82503C6.39167 8.04169 6 7.10003 6 6.00003C6 4.90003 6.39167 3.95836 7.175 3.17503C7.95833 2.39169 8.9 2.00003 10 2.00003C11.1 2.00003 12.0417 2.39169 12.825 3.17503C13.6083 3.95836 14 4.90003 14 6.00003C14 7.10003 13.6083 8.04169 12.825 8.82503C12.0417 9.60836 11.1 10 10 10ZM20 6.00003C20 7.10003 19.6083 8.04169 18.825 8.82503C18.0417 9.60836 17.1 10 16 10C15.8167 10 15.5833 9.97903 15.3 9.93703C15.0167 9.89503 14.7833 9.84936 14.6 9.80003C15.05 9.26669 15.396 8.67503 15.638 8.02503C15.88 7.37503 16.0007 6.70003 16 6.00003C16 5.30003 15.8793 4.62503 15.638 3.97503C15.3967 3.32503 15.0507 2.73336 14.6 2.20003C14.8333 2.11669 15.0667 2.06236 15.3 2.03703C15.5333 2.01169 15.7667 1.99936 16 2.00003C17.1 2.00003 18.0417 2.39169 18.825 3.17503C19.6083 3.95836 20 4.90003 20 6.00003ZM4 16H16V15.2C16 15.0167 15.954 14.85 15.862 14.7C15.77 14.55 15.6493 14.4334 15.5 14.35C14.6 13.9 13.6917 13.5627 12.775 13.338C11.8583 13.1134 10.9333 13.0007 10 13C9.06667 13 8.14167 13.1127 7.225 13.338C6.30833 13.5634 5.4 13.9007 4.5 14.35C4.35 14.4334 4.229 14.55 4.137 14.7C4.045 14.85 3.99933 15.0167 4 15.2V16ZM10 8.00003C10.55 8.00003 11.021 7.80403 11.413 7.41203C11.805 7.02003 12.0007 6.54936 12 6.00003C12 5.45003 11.804 4.97903 11.412 4.58703C11.02 4.19503 10.5493 3.99936 10 4.00003C9.45 4.00003 8.979 4.19603 8.587 4.58803C8.195 4.98003 7.99933 5.45069 8 6.00003C8 6.55003 8.196 7.02103 8.588 7.41303C8.98 7.80503 9.45067 8.00069 10 8.00003Z" fill="#EDBC48"/>
</svg>
