<svg width="315" height="36" viewBox="0 0 315 36" fill="none" xmlns="http://www.w3.org/2000/svg">
<path d="M2.926 1.228V11H0.966V1.228H2.926ZM9.45448 11L6.82248 7.696V11H4.86248V0.64H6.82248V6.534L9.42648 3.244H11.9745L8.55848 7.136L12.0025 11H9.45448ZM12.5343 7.094C12.5343 6.31 12.6883 5.61467 12.9963 5.008C13.3136 4.40133 13.7383 3.93467 14.2703 3.608C14.8116 3.28133 15.4136 3.118 16.0763 3.118C16.6549 3.118 17.1589 3.23467 17.5883 3.468C18.0269 3.70133 18.3769 3.99533 18.6383 4.35V3.244H20.6123V11H18.6383V9.866C18.3863 10.23 18.0363 10.5333 17.5883 10.776C17.1496 11.0093 16.6409 11.126 16.0623 11.126C15.4089 11.126 14.8116 10.958 14.2703 10.622C13.7383 10.286 13.3136 9.81467 12.9963 9.208C12.6883 8.592 12.5343 7.88733 12.5343 7.094ZM18.6383 7.122C18.6383 6.646 18.5449 6.24 18.3583 5.904C18.1716 5.55867 17.9196 5.29733 17.6023 5.12C17.2849 4.93333 16.9443 4.84 16.5803 4.84C16.2163 4.84 15.8803 4.92867 15.5723 5.106C15.2643 5.28333 15.0123 5.54467 14.8163 5.89C14.6296 6.226 14.5363 6.62733 14.5363 7.094C14.5363 7.56067 14.6296 7.97133 14.8163 8.326C15.0123 8.67133 15.2643 8.93733 15.5723 9.124C15.8896 9.31067 16.2256 9.404 16.5803 9.404C16.9443 9.404 17.2849 9.31533 17.6023 9.138C17.9196 8.95133 18.1716 8.69 18.3583 8.354C18.5449 8.00867 18.6383 7.598 18.6383 7.122ZM24.8085 4.854V8.606C24.8085 8.86733 24.8692 9.05867 24.9905 9.18C25.1212 9.292 25.3359 9.348 25.6345 9.348H26.5445V11H25.3125C23.6605 11 22.8345 10.1973 22.8345 8.592V4.854H21.9105V3.244H22.8345V1.326H24.8085V3.244H26.5445V4.854H24.8085ZM27.4503 7.094C27.4503 6.31 27.6043 5.61467 27.9123 5.008C28.2296 4.40133 28.6543 3.93467 29.1863 3.608C29.7276 3.28133 30.3296 3.118 30.9923 3.118C31.5709 3.118 32.0749 3.23467 32.5043 3.468C32.9429 3.70133 33.2929 3.99533 33.5543 4.35V3.244H35.5283V11H33.5543V9.866C33.3023 10.23 32.9523 10.5333 32.5043 10.776C32.0656 11.0093 31.5569 11.126 30.9783 11.126C30.3249 11.126 29.7276 10.958 29.1863 10.622C28.6543 10.286 28.2296 9.81467 27.9123 9.208C27.6043 8.592 27.4503 7.88733 27.4503 7.094ZM33.5543 7.122C33.5543 6.646 33.4609 6.24 33.2743 5.904C33.0876 5.55867 32.8356 5.29733 32.5183 5.12C32.2009 4.93333 31.8603 4.84 31.4963 4.84C31.1323 4.84 30.7963 4.92867 30.4883 5.106C30.1803 5.28333 29.9283 5.54467 29.7323 5.89C29.5456 6.226 29.4523 6.62733 29.4523 7.094C29.4523 7.56067 29.5456 7.97133 29.7323 8.326C29.9283 8.67133 30.1803 8.93733 30.4883 9.124C30.8056 9.31067 31.1416 9.404 31.4963 9.404C31.8603 9.404 32.2009 9.31533 32.5183 9.138C32.8356 8.95133 33.0876 8.69 33.2743 8.354C33.4609 8.00867 33.5543 7.598 33.5543 7.122ZM41.7406 3.132C42.6646 3.132 43.4112 3.426 43.9806 4.014C44.5499 4.59267 44.8346 5.40467 44.8346 6.45V11H42.8746V6.716C42.8746 6.1 42.7206 5.62867 42.4126 5.302C42.1046 4.966 41.6846 4.798 41.1526 4.798C40.6112 4.798 40.1819 4.966 39.8646 5.302C39.5566 5.62867 39.4026 6.1 39.4026 6.716V11H37.4426V3.244H39.4026V4.21C39.6639 3.874 39.9952 3.61267 40.3966 3.426C40.8072 3.23 41.2552 3.132 41.7406 3.132ZM58.1404 1.228V11H56.1804V6.842H51.9944V11H50.0344V1.228H51.9944V5.246H56.1804V1.228H58.1404ZM59.5655 7.094C59.5655 6.31 59.7195 5.61467 60.0275 5.008C60.3448 4.40133 60.7695 3.93467 61.3015 3.608C61.8428 3.28133 62.4448 3.118 63.1075 3.118C63.6862 3.118 64.1902 3.23467 64.6195 3.468C65.0582 3.70133 65.4082 3.99533 65.6695 4.35V3.244H67.6435V11H65.6695V9.866C65.4175 10.23 65.0675 10.5333 64.6195 10.776C64.1808 11.0093 63.6722 11.126 63.0935 11.126C62.4402 11.126 61.8428 10.958 61.3015 10.622C60.7695 10.286 60.3448 9.81467 60.0275 9.208C59.7195 8.592 59.5655 7.88733 59.5655 7.094ZM65.6695 7.122C65.6695 6.646 65.5762 6.24 65.3895 5.904C65.2028 5.55867 64.9508 5.29733 64.6335 5.12C64.3162 4.93333 63.9755 4.84 63.6115 4.84C63.2475 4.84 62.9115 4.92867 62.6035 5.106C62.2955 5.28333 62.0435 5.54467 61.8475 5.89C61.6608 6.226 61.5675 6.62733 61.5675 7.094C61.5675 7.56067 61.6608 7.97133 61.8475 8.326C62.0435 8.67133 62.2955 8.93733 62.6035 9.124C62.9208 9.31067 63.2568 9.404 63.6115 9.404C63.9755 9.404 64.3162 9.31533 64.6335 9.138C64.9508 8.95133 65.2028 8.69 65.3895 8.354C65.5762 8.00867 65.6695 7.598 65.6695 7.122ZM71.5178 4.364C71.7698 4.00933 72.1151 3.71533 72.5538 3.482C73.0018 3.23933 73.5105 3.118 74.0798 3.118C74.7425 3.118 75.3398 3.28133 75.8718 3.608C76.4131 3.93467 76.8378 4.40133 77.1458 5.008C77.4631 5.60533 77.6218 6.30067 77.6218 7.094C77.6218 7.88733 77.4631 8.592 77.1458 9.208C76.8378 9.81467 76.4131 10.286 75.8718 10.622C75.3398 10.958 74.7425 11.126 74.0798 11.126C73.5105 11.126 73.0065 11.0093 72.5678 10.776C72.1385 10.5427 71.7885 10.2487 71.5178 9.894V14.696H69.5578V3.244H71.5178V4.364ZM75.6198 7.094C75.6198 6.62733 75.5218 6.226 75.3258 5.89C75.1391 5.54467 74.8871 5.28333 74.5698 5.106C74.2618 4.92867 73.9258 4.84 73.5618 4.84C73.2071 4.84 72.8711 4.93333 72.5538 5.12C72.2458 5.29733 71.9938 5.55867 71.7978 5.904C71.6111 6.24933 71.5178 6.65533 71.5178 7.122C71.5178 7.58867 71.6111 7.99467 71.7978 8.34C71.9938 8.68533 72.2458 8.95133 72.5538 9.138C72.8711 9.31533 73.2071 9.404 73.5618 9.404C73.9258 9.404 74.2618 9.31067 74.5698 9.124C74.8871 8.93733 75.1391 8.67133 75.3258 8.326C75.5218 7.98067 75.6198 7.57 75.6198 7.094ZM83.6381 11L81.0061 7.696V11H79.0461V0.64H81.0061V6.534L83.6101 3.244H86.1581L82.7421 7.136L86.1861 11H83.6381ZM88.2159 2.32C87.8705 2.32 87.5812 2.21267 87.3479 1.998C87.1239 1.774 87.0119 1.49867 87.0119 1.172C87.0119 0.845333 87.1239 0.574666 87.3479 0.359999C87.5812 0.135999 87.8705 0.0239995 88.2159 0.0239995C88.5612 0.0239995 88.8459 0.135999 89.0699 0.359999C89.3032 0.574666 89.4199 0.845333 89.4199 1.172C89.4199 1.49867 89.3032 1.774 89.0699 1.998C88.8459 2.21267 88.5612 2.32 88.2159 2.32ZM89.1819 3.244V11H87.2219V3.244H89.1819ZM90.6143 7.094C90.6143 6.31 90.7683 5.61467 91.0763 5.008C91.3937 4.40133 91.823 3.93467 92.3643 3.608C92.9057 3.28133 93.5077 3.118 94.1703 3.118C94.6743 3.118 95.155 3.23 95.6123 3.454C96.0697 3.66867 96.4337 3.958 96.7043 4.322V0.64H98.6923V11H96.7043V9.852C96.4617 10.2347 96.121 10.5427 95.6823 10.776C95.2437 11.0093 94.735 11.126 94.1563 11.126C93.503 11.126 92.9057 10.958 92.3643 10.622C91.823 10.286 91.3937 9.81467 91.0763 9.208C90.7683 8.592 90.6143 7.88733 90.6143 7.094ZM96.7183 7.122C96.7183 6.646 96.625 6.24 96.4383 5.904C96.2517 5.55867 95.9997 5.29733 95.6823 5.12C95.365 4.93333 95.0243 4.84 94.6603 4.84C94.2963 4.84 93.9603 4.92867 93.6523 5.106C93.3443 5.28333 93.0923 5.54467 92.8963 5.89C92.7097 6.226 92.6163 6.62733 92.6163 7.094C92.6163 7.56067 92.7097 7.97133 92.8963 8.326C93.0923 8.67133 93.3443 8.93733 93.6523 9.124C93.9697 9.31067 94.3057 9.404 94.6603 9.404C95.0243 9.404 95.365 9.31533 95.6823 9.138C95.9997 8.95133 96.2517 8.69 96.4383 8.354C96.625 8.00867 96.7183 7.598 96.7183 7.122ZM104.051 11.126C103.304 11.126 102.632 10.9627 102.035 10.636C101.437 10.3 100.966 9.82867 100.621 9.222C100.285 8.61533 100.117 7.91533 100.117 7.122C100.117 6.32867 100.289 5.62867 100.635 5.022C100.989 4.41533 101.47 3.94867 102.077 3.622C102.683 3.286 103.36 3.118 104.107 3.118C104.853 3.118 105.53 3.286 106.137 3.622C106.743 3.94867 107.219 4.41533 107.565 5.022C107.919 5.62867 108.097 6.32867 108.097 7.122C108.097 7.91533 107.915 8.61533 107.551 9.222C107.196 9.82867 106.711 10.3 106.095 10.636C105.488 10.9627 104.807 11.126 104.051 11.126ZM104.051 9.418C104.405 9.418 104.737 9.334 105.045 9.166C105.362 8.98867 105.614 8.72733 105.801 8.382C105.987 8.03667 106.081 7.61667 106.081 7.122C106.081 6.38467 105.885 5.82 105.493 5.428C105.11 5.02667 104.639 4.826 104.079 4.826C103.519 4.826 103.047 5.02667 102.665 5.428C102.291 5.82 102.105 6.38467 102.105 7.122C102.105 7.85933 102.287 8.42867 102.651 8.83C103.024 9.222 103.491 9.418 104.051 9.418ZM114.83 1.228V11H112.87V1.228H114.83ZM123.417 1.228V2.81H120.813V11H118.853V2.81H116.249V1.228H123.417ZM126.807 2.81V5.26H130.097V6.814H126.807V9.404H130.517V11H124.847V1.214H130.517V2.81H126.807ZM137.338 11L135.182 7.192H134.258V11H132.298V1.228H135.966C136.722 1.228 137.366 1.36333 137.898 1.634C138.43 1.89533 138.827 2.25467 139.088 2.712C139.359 3.16 139.494 3.664 139.494 4.224C139.494 4.868 139.307 5.45133 138.934 5.974C138.561 6.48733 138.005 6.842 137.268 7.038L139.606 11H137.338ZM134.258 5.722H135.896C136.428 5.722 136.825 5.596 137.086 5.344C137.347 5.08267 137.478 4.72333 137.478 4.266C137.478 3.818 137.347 3.47267 137.086 3.23C136.825 2.978 136.428 2.852 135.896 2.852H134.258V5.722ZM147.259 9.138H143.367L142.723 11H140.665L144.179 1.214H146.461L149.975 11H147.903L147.259 9.138ZM146.727 7.57L145.313 3.482L143.899 7.57H146.727ZM160.168 5.988C160.719 6.09067 161.172 6.366 161.526 6.814C161.881 7.262 162.058 7.77533 162.058 8.354C162.058 8.87667 161.928 9.33867 161.666 9.74C161.414 10.132 161.046 10.44 160.56 10.664C160.075 10.888 159.501 11 158.838 11H154.624V1.228H158.656C159.319 1.228 159.888 1.33533 160.364 1.55C160.85 1.76467 161.214 2.06333 161.456 2.446C161.708 2.82867 161.834 3.26267 161.834 3.748C161.834 4.31733 161.68 4.79333 161.372 5.176C161.074 5.55867 160.672 5.82933 160.168 5.988ZM156.584 5.26H158.376C158.843 5.26 159.202 5.15733 159.454 4.952C159.706 4.73733 159.832 4.434 159.832 4.042C159.832 3.65 159.706 3.34667 159.454 3.132C159.202 2.91733 158.843 2.81 158.376 2.81H156.584V5.26ZM158.558 9.404C159.034 9.404 159.403 9.292 159.664 9.068C159.935 8.844 160.07 8.52667 160.07 8.116C160.07 7.696 159.93 7.36933 159.65 7.136C159.37 6.89333 158.992 6.772 158.516 6.772H156.584V9.404H158.558ZM167.064 11.126C166.318 11.126 165.646 10.9627 165.048 10.636C164.451 10.3 163.98 9.82867 163.634 9.222C163.298 8.61533 163.13 7.91533 163.13 7.122C163.13 6.32867 163.303 5.62867 163.648 5.022C164.003 4.41533 164.484 3.94867 165.09 3.622C165.697 3.286 166.374 3.118 167.12 3.118C167.867 3.118 168.544 3.286 169.15 3.622C169.757 3.94867 170.233 4.41533 170.578 5.022C170.933 5.62867 171.11 6.32867 171.11 7.122C171.11 7.91533 170.928 8.61533 170.564 9.222C170.21 9.82867 169.724 10.3 169.108 10.636C168.502 10.9627 167.82 11.126 167.064 11.126ZM167.064 9.418C167.419 9.418 167.75 9.334 168.058 9.166C168.376 8.98867 168.628 8.72733 168.814 8.382C169.001 8.03667 169.094 7.61667 169.094 7.122C169.094 6.38467 168.898 5.82 168.506 5.428C168.124 5.02667 167.652 4.826 167.092 4.826C166.532 4.826 166.061 5.02667 165.678 5.428C165.305 5.82 165.118 6.38467 165.118 7.122C165.118 7.85933 165.3 8.42867 165.664 8.83C166.038 9.222 166.504 9.418 167.064 9.418ZM174.508 4.448C174.76 4.03733 175.087 3.71533 175.488 3.482C175.899 3.24867 176.365 3.132 176.888 3.132V5.19H176.37C175.754 5.19 175.287 5.33467 174.97 5.624C174.662 5.91333 174.508 6.41733 174.508 7.136V11H172.548V3.244H174.508V4.448ZM181.652 11.126C180.906 11.126 180.234 10.9627 179.636 10.636C179.039 10.3 178.568 9.82867 178.222 9.222C177.886 8.61533 177.718 7.91533 177.718 7.122C177.718 6.32867 177.891 5.62867 178.236 5.022C178.591 4.41533 179.072 3.94867 179.678 3.622C180.285 3.286 180.962 3.118 181.708 3.118C182.455 3.118 183.132 3.286 183.738 3.622C184.345 3.94867 184.821 4.41533 185.166 5.022C185.521 5.62867 185.698 6.32867 185.698 7.122C185.698 7.91533 185.516 8.61533 185.152 9.222C184.798 9.82867 184.312 10.3 183.696 10.636C183.09 10.9627 182.408 11.126 181.652 11.126ZM181.652 9.418C182.007 9.418 182.338 9.334 182.646 9.166C182.964 8.98867 183.216 8.72733 183.402 8.382C183.589 8.03667 183.682 7.61667 183.682 7.122C183.682 6.38467 183.486 5.82 183.094 5.428C182.712 5.02667 182.24 4.826 181.68 4.826C181.12 4.826 180.649 5.02667 180.266 5.428C179.893 5.82 179.706 6.38467 179.706 7.122C179.706 7.85933 179.888 8.42867 180.252 8.83C180.626 9.222 181.092 9.418 181.652 9.418ZM191.434 3.132C192.358 3.132 193.105 3.426 193.674 4.014C194.243 4.59267 194.528 5.40467 194.528 6.45V11H192.568V6.716C192.568 6.1 192.414 5.62867 192.106 5.302C191.798 4.966 191.378 4.798 190.846 4.798C190.305 4.798 189.875 4.966 189.558 5.302C189.25 5.62867 189.096 6.1 189.096 6.716V11H187.136V3.244H189.096V4.21C189.357 3.874 189.689 3.61267 190.09 3.426C190.501 3.23 190.949 3.132 191.434 3.132ZM199.43 3.118C200.008 3.118 200.517 3.23467 200.956 3.468C201.394 3.692 201.74 3.986 201.992 4.35V3.244H203.966V11.056C203.966 11.7747 203.821 12.414 203.532 12.974C203.242 13.5433 202.808 13.9913 202.23 14.318C201.651 14.654 200.951 14.822 200.13 14.822C199.028 14.822 198.123 14.5653 197.414 14.052C196.714 13.5387 196.317 12.8387 196.224 11.952H198.17C198.272 12.3067 198.492 12.5867 198.828 12.792C199.173 13.0067 199.588 13.114 200.074 13.114C200.643 13.114 201.105 12.9413 201.46 12.596C201.814 12.26 201.992 11.7467 201.992 11.056V9.852C201.74 10.216 201.39 10.5193 200.942 10.762C200.503 11.0047 199.999 11.126 199.43 11.126C198.776 11.126 198.179 10.958 197.638 10.622C197.096 10.286 196.667 9.81467 196.35 9.208C196.042 8.592 195.888 7.88733 195.888 7.094C195.888 6.31 196.042 5.61467 196.35 5.008C196.667 4.40133 197.092 3.93467 197.624 3.608C198.165 3.28133 198.767 3.118 199.43 3.118ZM201.992 7.122C201.992 6.646 201.898 6.24 201.712 5.904C201.525 5.55867 201.273 5.29733 200.956 5.12C200.638 4.93333 200.298 4.84 199.934 4.84C199.57 4.84 199.234 4.92867 198.926 5.106C198.618 5.28333 198.366 5.54467 198.17 5.89C197.983 6.226 197.89 6.62733 197.89 7.094C197.89 7.56067 197.983 7.97133 198.17 8.326C198.366 8.67133 198.618 8.93733 198.926 9.124C199.243 9.31067 199.579 9.404 199.934 9.404C200.298 9.404 200.638 9.31533 200.956 9.138C201.273 8.95133 201.525 8.69 201.712 8.354C201.898 8.00867 201.992 7.598 201.992 7.122ZM211.26 8.13C211.335 8.54067 211.503 8.858 211.764 9.082C212.035 9.29667 212.394 9.404 212.842 9.404C213.421 9.404 213.841 9.166 214.102 8.69C214.363 8.20467 214.494 7.39267 214.494 6.254C214.279 6.55267 213.976 6.786 213.584 6.954C213.201 7.122 212.786 7.206 212.338 7.206C211.741 7.206 211.199 7.08467 210.714 6.842C210.238 6.59 209.86 6.22133 209.58 5.736C209.3 5.24133 209.16 4.644 209.16 3.944C209.16 2.908 209.468 2.08667 210.084 1.48C210.7 0.863999 211.54 0.555999 212.604 0.555999C213.929 0.555999 214.863 0.980666 215.404 1.83C215.955 2.67933 216.23 3.958 216.23 5.666C216.23 6.87933 216.123 7.87333 215.908 8.648C215.703 9.42267 215.343 10.0107 214.83 10.412C214.326 10.8133 213.635 11.014 212.758 11.014C212.067 11.014 211.479 10.8833 210.994 10.622C210.509 10.3513 210.135 10.0013 209.874 9.572C209.622 9.13333 209.477 8.65267 209.44 8.13H211.26ZM212.744 5.61C213.229 5.61 213.612 5.46067 213.892 5.162C214.172 4.86333 214.312 4.462 214.312 3.958C214.312 3.40733 214.163 2.98267 213.864 2.684C213.575 2.376 213.178 2.222 212.674 2.222C212.17 2.222 211.769 2.38067 211.47 2.698C211.181 3.006 211.036 3.41667 211.036 3.93C211.036 4.42467 211.176 4.83067 211.456 5.148C211.745 5.456 212.175 5.61 212.744 5.61ZM231.97 1.228V11H230.01V4.644L227.392 11H225.908L223.276 4.644V11H221.316V1.228H223.542L226.65 8.494L229.758 1.228H231.97ZM241.117 6.954C241.117 7.234 241.099 7.486 241.061 7.71H235.391C235.438 8.27 235.634 8.70867 235.979 9.026C236.325 9.34333 236.749 9.502 237.253 9.502C237.981 9.502 238.499 9.18933 238.807 8.564H240.921C240.697 9.31067 240.268 9.92667 239.633 10.412C238.999 10.888 238.219 11.126 237.295 11.126C236.549 11.126 235.877 10.9627 235.279 10.636C234.691 10.3 234.229 9.82867 233.893 9.222C233.567 8.61533 233.403 7.91533 233.403 7.122C233.403 6.31933 233.567 5.61467 233.893 5.008C234.22 4.40133 234.677 3.93467 235.265 3.608C235.853 3.28133 236.53 3.118 237.295 3.118C238.033 3.118 238.691 3.27667 239.269 3.594C239.857 3.91133 240.31 4.364 240.627 4.952C240.954 5.53067 241.117 6.198 241.117 6.954ZM239.087 6.394C239.078 5.89 238.896 5.48867 238.541 5.19C238.187 4.882 237.753 4.728 237.239 4.728C236.754 4.728 236.343 4.87733 236.007 5.176C235.681 5.46533 235.48 5.87133 235.405 6.394H239.087ZM242.044 7.094C242.044 6.31 242.198 5.61467 242.506 5.008C242.823 4.40133 243.253 3.93467 243.794 3.608C244.335 3.28133 244.937 3.118 245.6 3.118C246.104 3.118 246.585 3.23 247.042 3.454C247.499 3.66867 247.863 3.958 248.134 4.322V0.64H250.122V11H248.134V9.852C247.891 10.2347 247.551 10.5427 247.112 10.776C246.673 11.0093 246.165 11.126 245.586 11.126C244.933 11.126 244.335 10.958 243.794 10.622C243.253 10.286 242.823 9.81467 242.506 9.208C242.198 8.592 242.044 7.88733 242.044 7.094ZM248.148 7.122C248.148 6.646 248.055 6.24 247.868 5.904C247.681 5.55867 247.429 5.29733 247.112 5.12C246.795 4.93333 246.454 4.84 246.09 4.84C245.726 4.84 245.39 4.92867 245.082 5.106C244.774 5.28333 244.522 5.54467 244.326 5.89C244.139 6.226 244.046 6.62733 244.046 7.094C244.046 7.56067 244.139 7.97133 244.326 8.326C244.522 8.67133 244.774 8.93733 245.082 9.124C245.399 9.31067 245.735 9.404 246.09 9.404C246.454 9.404 246.795 9.31533 247.112 9.138C247.429 8.95133 247.681 8.69 247.868 8.354C248.055 8.00867 248.148 7.598 248.148 7.122ZM251.532 7.094C251.532 6.31 251.686 5.61467 251.994 5.008C252.312 4.40133 252.736 3.93467 253.268 3.608C253.81 3.28133 254.412 3.118 255.074 3.118C255.653 3.118 256.157 3.23467 256.586 3.468C257.025 3.70133 257.375 3.99533 257.636 4.35V3.244H259.61V11H257.636V9.866C257.384 10.23 257.034 10.5333 256.586 10.776C256.148 11.0093 255.639 11.126 255.06 11.126C254.407 11.126 253.81 10.958 253.268 10.622C252.736 10.286 252.312 9.81467 251.994 9.208C251.686 8.592 251.532 7.88733 251.532 7.094ZM257.636 7.122C257.636 6.646 257.543 6.24 257.356 5.904C257.17 5.55867 256.918 5.29733 256.6 5.12C256.283 4.93333 255.942 4.84 255.578 4.84C255.214 4.84 254.878 4.92867 254.57 5.106C254.262 5.28333 254.01 5.54467 253.814 5.89C253.628 6.226 253.534 6.62733 253.534 7.094C253.534 7.56067 253.628 7.97133 253.814 8.326C254.01 8.67133 254.262 8.93733 254.57 9.124C254.888 9.31067 255.224 9.404 255.578 9.404C255.942 9.404 256.283 9.31533 256.6 9.138C256.918 8.95133 257.17 8.69 257.356 8.354C257.543 8.00867 257.636 7.598 257.636 7.122ZM263.485 0.64V11H261.525V0.64H263.485ZM266.415 2.32C266.07 2.32 265.78 2.21267 265.547 1.998C265.323 1.774 265.211 1.49867 265.211 1.172C265.211 0.845333 265.323 0.574666 265.547 0.359999C265.78 0.135999 266.07 0.0239995 266.415 0.0239995C266.76 0.0239995 267.045 0.135999 267.269 0.359999C267.502 0.574666 267.619 0.845333 267.619 1.172C267.619 1.49867 267.502 1.774 267.269 1.998C267.045 2.21267 266.76 2.32 266.415 2.32ZM267.381 3.244V11H265.421V3.244H267.381ZM0.462 28.094C0.462 27.31 0.616 26.6147 0.924 26.008C1.24133 25.4013 1.67067 24.9347 2.212 24.608C2.75333 24.2813 3.35533 24.118 4.018 24.118C4.522 24.118 5.00267 24.23 5.46 24.454C5.91733 24.6687 6.28133 24.958 6.552 25.322V21.64H8.54V32H6.552V30.852C6.30933 31.2347 5.96867 31.5427 5.53 31.776C5.09133 32.0093 4.58267 32.126 4.004 32.126C3.35067 32.126 2.75333 31.958 2.212 31.622C1.67067 31.286 1.24133 30.8147 0.924 30.208C0.616 29.592 0.462 28.8873 0.462 28.094ZM6.566 28.122C6.566 27.646 6.47267 27.24 6.286 26.904C6.09933 26.5587 5.84733 26.2973 5.53 26.12C5.21267 25.9333 4.872 25.84 4.508 25.84C4.144 25.84 3.808 25.9287 3.5 26.106C3.192 26.2833 2.94 26.5447 2.744 26.89C2.55733 27.226 2.464 27.6273 2.464 28.094C2.464 28.5607 2.55733 28.9713 2.744 29.326C2.94 29.6713 3.192 29.9373 3.5 30.124C3.81733 30.3107 4.15333 30.404 4.508 30.404C4.872 30.404 5.21267 30.3153 5.53 30.138C5.84733 29.9513 6.09933 29.69 6.286 29.354C6.47267 29.0087 6.566 28.598 6.566 28.122ZM9.95028 28.094C9.95028 27.31 10.1043 26.6147 10.4123 26.008C10.7296 25.4013 11.1543 24.9347 11.6863 24.608C12.2276 24.2813 12.8296 24.118 13.4923 24.118C14.0709 24.118 14.5749 24.2347 15.0043 24.468C15.4429 24.7013 15.7929 24.9953 16.0543 25.35V24.244H18.0283V32H16.0543V30.866C15.8023 31.23 15.4523 31.5333 15.0043 31.776C14.5656 32.0093 14.0569 32.126 13.4783 32.126C12.8249 32.126 12.2276 31.958 11.6863 31.622C11.1543 31.286 10.7296 30.8147 10.4123 30.208C10.1043 29.592 9.95028 28.8873 9.95028 28.094ZM16.0543 28.122C16.0543 27.646 15.9609 27.24 15.7743 26.904C15.5876 26.5587 15.3356 26.2973 15.0183 26.12C14.7009 25.9333 14.3603 25.84 13.9963 25.84C13.6323 25.84 13.2963 25.9287 12.9883 26.106C12.6803 26.2833 12.4283 26.5447 12.2323 26.89C12.0456 27.226 11.9523 27.6273 11.9523 28.094C11.9523 28.5607 12.0456 28.9713 12.2323 29.326C12.4283 29.6713 12.6803 29.9373 12.9883 30.124C13.3056 30.3107 13.6416 30.404 13.9963 30.404C14.3603 30.404 14.7009 30.3153 15.0183 30.138C15.3356 29.9513 15.5876 29.69 15.7743 29.354C15.9609 29.0087 16.0543 28.598 16.0543 28.122ZM21.9026 21.64V32H19.9426V21.64H21.9026ZM23.335 28.094C23.335 27.31 23.489 26.6147 23.797 26.008C24.1144 25.4013 24.539 24.9347 25.071 24.608C25.6124 24.2813 26.2144 24.118 26.877 24.118C27.4557 24.118 27.9597 24.2347 28.389 24.468C28.8277 24.7013 29.1777 24.9953 29.439 25.35V24.244H31.413V32H29.439V30.866C29.187 31.23 28.837 31.5333 28.389 31.776C27.9504 32.0093 27.4417 32.126 26.863 32.126C26.2097 32.126 25.6124 31.958 25.071 31.622C24.539 31.286 24.1144 30.8147 23.797 30.208C23.489 29.592 23.335 28.8873 23.335 28.094ZM29.439 28.122C29.439 27.646 29.3457 27.24 29.159 26.904C28.9724 26.5587 28.7204 26.2973 28.403 26.12C28.0857 25.9333 27.745 25.84 27.381 25.84C27.017 25.84 26.681 25.9287 26.373 26.106C26.065 26.2833 25.813 26.5447 25.617 26.89C25.4304 27.226 25.337 27.6273 25.337 28.094C25.337 28.5607 25.4304 28.9713 25.617 29.326C25.813 29.6713 26.065 29.9373 26.373 30.124C26.6904 30.3107 27.0264 30.404 27.381 30.404C27.745 30.404 28.0857 30.3153 28.403 30.138C28.7204 29.9513 28.9724 29.69 29.159 29.354C29.3457 29.0087 29.439 28.598 29.439 28.122ZM42.9593 24.132C43.9113 24.132 44.6767 24.426 45.2553 25.014C45.8433 25.5927 46.1373 26.4047 46.1373 27.45V32H44.1773V27.716C44.1773 27.1093 44.0233 26.6473 43.7153 26.33C43.4073 26.0033 42.9873 25.84 42.4553 25.84C41.9233 25.84 41.4987 26.0033 41.1813 26.33C40.8733 26.6473 40.7193 27.1093 40.7193 27.716V32H38.7593V27.716C38.7593 27.1093 38.6053 26.6473 38.2973 26.33C37.9893 26.0033 37.5693 25.84 37.0373 25.84C36.496 25.84 36.0667 26.0033 35.7493 26.33C35.4413 26.6473 35.2873 27.1093 35.2873 27.716V32H33.3273V24.244H35.2873V25.182C35.5393 24.8553 35.8613 24.5987 36.2533 24.412C36.6547 24.2253 37.0933 24.132 37.5693 24.132C38.176 24.132 38.7173 24.2627 39.1933 24.524C39.6693 24.776 40.038 25.14 40.2993 25.616C40.5513 25.168 40.9153 24.8087 41.3913 24.538C41.8767 24.2673 42.3993 24.132 42.9593 24.132ZM56.8492 32L53.2932 27.646V32H51.3332V22.228H53.2932V26.61L56.8492 22.228H59.2152L55.1832 27.072L59.3272 32H56.8492ZM67.8264 27.954C67.8264 28.234 67.8077 28.486 67.7704 28.71H62.1004C62.1471 29.27 62.3431 29.7087 62.6884 30.026C63.0337 30.3433 63.4584 30.502 63.9624 30.502C64.6904 30.502 65.2084 30.1893 65.5164 29.564H67.6304C67.4064 30.3107 66.9771 30.9267 66.3424 31.412C65.7077 31.888 64.9284 32.126 64.0044 32.126C63.2577 32.126 62.5857 31.9627 61.9884 31.636C61.4004 31.3 60.9384 30.8287 60.6024 30.222C60.2757 29.6153 60.1124 28.9153 60.1124 28.122C60.1124 27.3193 60.2757 26.6147 60.6024 26.008C60.9291 25.4013 61.3864 24.9347 61.9744 24.608C62.5624 24.2813 63.2391 24.118 64.0044 24.118C64.7417 24.118 65.3997 24.2767 65.9784 24.594C66.5664 24.9113 67.0191 25.364 67.3364 25.952C67.6631 26.5307 67.8264 27.198 67.8264 27.954ZM65.7964 27.394C65.7871 26.89 65.6051 26.4887 65.2504 26.19C64.8957 25.882 64.4617 25.728 63.9484 25.728C63.4631 25.728 63.0524 25.8773 62.7164 26.176C62.3897 26.4653 62.1891 26.8713 62.1144 27.394H65.7964ZM70.251 23.32C69.8963 23.32 69.6023 23.2127 69.369 22.998C69.145 22.774 69.033 22.4987 69.033 22.172C69.033 21.8453 69.145 21.5747 69.369 21.36C69.6023 21.136 69.8963 21.024 70.251 21.024C70.5963 21.024 70.881 21.136 71.105 21.36C71.329 21.5747 71.441 21.8453 71.441 22.172C71.441 22.4987 71.329 22.774 71.105 22.998C70.881 23.2127 70.5963 23.32 70.251 23.32ZM71.217 33.274C71.217 34.1327 71.0023 34.7487 70.573 35.122C70.153 35.5047 69.5463 35.696 68.753 35.696H67.885V34.03H68.445C68.7437 34.03 68.9537 33.9693 69.075 33.848C69.1963 33.736 69.257 33.5493 69.257 33.288V24.244H71.217V33.274ZM80.4755 24.244V32H78.5015V31.02C78.2495 31.356 77.9182 31.622 77.5075 31.818C77.1062 32.0047 76.6675 32.098 76.1915 32.098C75.5848 32.098 75.0482 31.972 74.5815 31.72C74.1148 31.4587 73.7462 31.0807 73.4755 30.586C73.2142 30.082 73.0835 29.4847 73.0835 28.794V24.244H75.0435V28.514C75.0435 29.13 75.1975 29.606 75.5055 29.942C75.8135 30.2687 76.2335 30.432 76.7655 30.432C77.3068 30.432 77.7315 30.2687 78.0395 29.942C78.3475 29.606 78.5015 29.13 78.5015 28.514V24.244H80.4755ZM81.9054 28.094C81.9054 27.31 82.0594 26.6147 82.3674 26.008C82.6847 25.4013 83.1094 24.9347 83.6414 24.608C84.1827 24.2813 84.7847 24.118 85.4474 24.118C86.026 24.118 86.53 24.2347 86.9594 24.468C87.398 24.7013 87.748 24.9953 88.0094 25.35V24.244H89.9834V32H88.0094V30.866C87.7574 31.23 87.4074 31.5333 86.9594 31.776C86.5207 32.0093 86.012 32.126 85.4334 32.126C84.78 32.126 84.1827 31.958 83.6414 31.622C83.1094 31.286 82.6847 30.8147 82.3674 30.208C82.0594 29.592 81.9054 28.8873 81.9054 28.094ZM88.0094 28.122C88.0094 27.646 87.916 27.24 87.7294 26.904C87.5427 26.5587 87.2907 26.2973 86.9734 26.12C86.656 25.9333 86.3154 25.84 85.9514 25.84C85.5874 25.84 85.2514 25.9287 84.9434 26.106C84.6354 26.2833 84.3834 26.5447 84.1874 26.89C84.0007 27.226 83.9074 27.6273 83.9074 28.094C83.9074 28.5607 84.0007 28.9713 84.1874 29.326C84.3834 29.6713 84.6354 29.9373 84.9434 30.124C85.2607 30.3107 85.5967 30.404 85.9514 30.404C86.3154 30.404 86.656 30.3153 86.9734 30.138C87.2907 29.9513 87.5427 29.69 87.7294 29.354C87.916 29.0087 88.0094 28.598 88.0094 28.122ZM93.8576 25.448C94.1096 25.0373 94.4363 24.7153 94.8376 24.482C95.2483 24.2487 95.715 24.132 96.2376 24.132V26.19H95.7196C95.1036 26.19 94.637 26.3347 94.3196 26.624C94.0116 26.9133 93.8576 27.4173 93.8576 28.136V32H91.8976V24.244H93.8576V25.448ZM97.0538 28.094C97.0538 27.31 97.2078 26.6147 97.5158 26.008C97.8331 25.4013 98.2578 24.9347 98.7898 24.608C99.3311 24.2813 99.9331 24.118 100.596 24.118C101.174 24.118 101.678 24.2347 102.108 24.468C102.546 24.7013 102.896 24.9953 103.158 25.35V24.244H105.132V32H103.158V30.866C102.906 31.23 102.556 31.5333 102.108 31.776C101.669 32.0093 101.16 32.126 100.582 32.126C99.9285 32.126 99.3311 31.958 98.7898 31.622C98.2578 31.286 97.8331 30.8147 97.5158 30.208C97.2078 29.592 97.0538 28.8873 97.0538 28.094ZM103.158 28.122C103.158 27.646 103.064 27.24 102.878 26.904C102.691 26.5587 102.439 26.2973 102.122 26.12C101.804 25.9333 101.464 25.84 101.1 25.84C100.736 25.84 100.4 25.9287 100.092 26.106C99.7838 26.2833 99.5318 26.5447 99.3358 26.89C99.1491 27.226 99.0558 27.6273 99.0558 28.094C99.0558 28.5607 99.1491 28.9713 99.3358 29.326C99.5318 29.6713 99.7838 29.9373 100.092 30.124C100.409 30.3107 100.745 30.404 101.1 30.404C101.464 30.404 101.804 30.3153 102.122 30.138C102.439 29.9513 102.691 29.69 102.878 29.354C103.064 29.0087 103.158 28.598 103.158 28.122ZM106.542 28.094C106.542 27.31 106.696 26.6147 107.004 26.008C107.321 25.4013 107.746 24.9347 108.278 24.608C108.819 24.2813 109.421 24.118 110.084 24.118C110.663 24.118 111.167 24.2347 111.596 24.468C112.035 24.7013 112.385 24.9953 112.646 25.35V24.244H114.62V32H112.646V30.866C112.394 31.23 112.044 31.5333 111.596 31.776C111.157 32.0093 110.649 32.126 110.07 32.126C109.417 32.126 108.819 31.958 108.278 31.622C107.746 31.286 107.321 30.8147 107.004 30.208C106.696 29.592 106.542 28.8873 106.542 28.094ZM112.646 28.122C112.646 27.646 112.553 27.24 112.366 26.904C112.179 26.5587 111.927 26.2973 111.61 26.12C111.293 25.9333 110.952 25.84 110.588 25.84C110.224 25.84 109.888 25.9287 109.58 26.106C109.272 26.2833 109.02 26.5447 108.824 26.89C108.637 27.226 108.544 27.6273 108.544 28.094C108.544 28.5607 108.637 28.9713 108.824 29.326C109.02 29.6713 109.272 29.9373 109.58 30.124C109.897 30.3107 110.233 30.404 110.588 30.404C110.952 30.404 111.293 30.3153 111.61 30.138C111.927 29.9513 112.179 29.69 112.366 29.354C112.553 29.0087 112.646 28.598 112.646 28.122ZM120.832 24.132C121.756 24.132 122.503 24.426 123.072 25.014C123.642 25.5927 123.926 26.4047 123.926 27.45V32H121.966V27.716C121.966 27.1 121.812 26.6287 121.504 26.302C121.196 25.966 120.776 25.798 120.244 25.798C119.703 25.798 119.274 25.966 118.956 26.302C118.648 26.6287 118.494 27.1 118.494 27.716V32H116.534V24.244H118.494V25.21C118.756 24.874 119.087 24.6127 119.488 24.426C119.899 24.23 120.347 24.132 120.832 24.132ZM132.542 22.228C133.569 22.228 134.469 22.4287 135.244 22.83C136.028 23.2313 136.63 23.8053 137.05 24.552C137.479 25.2893 137.694 26.148 137.694 27.128C137.694 28.108 137.479 28.9667 137.05 29.704C136.63 30.432 136.028 30.9967 135.244 31.398C134.469 31.7993 133.569 32 132.542 32H129.126V22.228H132.542ZM132.472 30.334C133.499 30.334 134.292 30.054 134.852 29.494C135.412 28.934 135.692 28.1453 135.692 27.128C135.692 26.1107 135.412 25.3173 134.852 24.748C134.292 24.1693 133.499 23.88 132.472 23.88H131.086V30.334H132.472ZM138.657 28.094C138.657 27.31 138.811 26.6147 139.119 26.008C139.437 25.4013 139.861 24.9347 140.393 24.608C140.935 24.2813 141.537 24.118 142.199 24.118C142.778 24.118 143.282 24.2347 143.711 24.468C144.15 24.7013 144.5 24.9953 144.761 25.35V24.244H146.735V32H144.761V30.866C144.509 31.23 144.159 31.5333 143.711 31.776C143.273 32.0093 142.764 32.126 142.185 32.126C141.532 32.126 140.935 31.958 140.393 31.622C139.861 31.286 139.437 30.8147 139.119 30.208C138.811 29.592 138.657 28.8873 138.657 28.094ZM144.761 28.122C144.761 27.646 144.668 27.24 144.481 26.904C144.295 26.5587 144.043 26.2973 143.725 26.12C143.408 25.9333 143.067 25.84 142.703 25.84C142.339 25.84 142.003 25.9287 141.695 26.106C141.387 26.2833 141.135 26.5447 140.939 26.89C140.753 27.226 140.659 27.6273 140.659 28.094C140.659 28.5607 140.753 28.9713 140.939 29.326C141.135 29.6713 141.387 29.9373 141.695 30.124C142.013 30.3107 142.349 30.404 142.703 30.404C143.067 30.404 143.408 30.3153 143.725 30.138C144.043 29.9513 144.295 29.69 144.481 29.354C144.668 29.0087 144.761 28.598 144.761 28.122ZM155.86 27.954C155.86 28.234 155.841 28.486 155.804 28.71H150.134C150.18 29.27 150.376 29.7087 150.722 30.026C151.067 30.3433 151.492 30.502 151.996 30.502C152.724 30.502 153.242 30.1893 153.55 29.564H155.664C155.44 30.3107 155.01 30.9267 154.376 31.412C153.741 31.888 152.962 32.126 152.038 32.126C151.291 32.126 150.619 31.9627 150.022 31.636C149.434 31.3 148.972 30.8287 148.636 30.222C148.309 29.6153 148.146 28.9153 148.146 28.122C148.146 27.3193 148.309 26.6147 148.636 26.008C148.962 25.4013 149.42 24.9347 150.008 24.608C150.596 24.2813 151.272 24.118 152.038 24.118C152.775 24.118 153.433 24.2767 154.012 24.594C154.6 24.9113 155.052 25.364 155.37 25.952C155.696 26.5307 155.86 27.198 155.86 27.954ZM153.83 27.394C153.82 26.89 153.638 26.4887 153.284 26.19C152.929 25.882 152.495 25.728 151.982 25.728C151.496 25.728 151.086 25.8773 150.75 26.176C150.423 26.4653 150.222 26.8713 150.148 27.394H153.83ZM159.25 25.448C159.502 25.0373 159.829 24.7153 160.23 24.482C160.641 24.2487 161.108 24.132 161.63 24.132V26.19H161.112C160.496 26.19 160.03 26.3347 159.712 26.624C159.404 26.9133 159.25 27.4173 159.25 28.136V32H157.29V24.244H159.25V25.448ZM162.446 28.094C162.446 27.31 162.6 26.6147 162.908 26.008C163.226 25.4013 163.65 24.9347 164.182 24.608C164.724 24.2813 165.326 24.118 165.988 24.118C166.567 24.118 167.071 24.2347 167.5 24.468C167.939 24.7013 168.289 24.9953 168.55 25.35V24.244H170.524V32H168.55V30.866C168.298 31.23 167.948 31.5333 167.5 31.776C167.062 32.0093 166.553 32.126 165.974 32.126C165.321 32.126 164.724 31.958 164.182 31.622C163.65 31.286 163.226 30.8147 162.908 30.208C162.6 29.592 162.446 28.8873 162.446 28.094ZM168.55 28.122C168.55 27.646 168.457 27.24 168.27 26.904C168.084 26.5587 167.832 26.2973 167.514 26.12C167.197 25.9333 166.856 25.84 166.492 25.84C166.128 25.84 165.792 25.9287 165.484 26.106C165.176 26.2833 164.924 26.5447 164.728 26.89C164.542 27.226 164.448 27.6273 164.448 28.094C164.448 28.5607 164.542 28.9713 164.728 29.326C164.924 29.6713 165.176 29.9373 165.484 30.124C165.802 30.3107 166.138 30.404 166.492 30.404C166.856 30.404 167.197 30.3153 167.514 30.138C167.832 29.9513 168.084 29.69 168.27 29.354C168.457 29.0087 168.55 28.598 168.55 28.122ZM176.807 24.132C177.395 24.132 177.917 24.2627 178.375 24.524C178.832 24.776 179.187 25.154 179.439 25.658C179.7 26.1527 179.831 26.75 179.831 27.45V32H177.871V27.716C177.871 27.1 177.717 26.6287 177.409 26.302C177.101 25.966 176.681 25.798 176.149 25.798C175.607 25.798 175.178 25.966 174.861 26.302C174.553 26.6287 174.399 27.1 174.399 27.716V32H172.439V21.64H174.399V25.21C174.651 24.874 174.987 24.6127 175.407 24.426C175.827 24.23 176.293 24.132 176.807 24.132ZM193.136 22.228V32H191.176V27.842H186.99V32H185.03V22.228H186.99V26.246H191.176V22.228H193.136ZM194.562 28.094C194.562 27.31 194.716 26.6147 195.024 26.008C195.341 25.4013 195.766 24.9347 196.298 24.608C196.839 24.2813 197.441 24.118 198.104 24.118C198.682 24.118 199.186 24.2347 199.616 24.468C200.054 24.7013 200.404 24.9953 200.666 25.35V24.244H202.64V32H200.666V30.866C200.414 31.23 200.064 31.5333 199.616 31.776C199.177 32.0093 198.668 32.126 198.09 32.126C197.436 32.126 196.839 31.958 196.298 31.622C195.766 31.286 195.341 30.8147 195.024 30.208C194.716 29.592 194.562 28.8873 194.562 28.094ZM200.666 28.122C200.666 27.646 200.572 27.24 200.386 26.904C200.199 26.5587 199.947 26.2973 199.63 26.12C199.312 25.9333 198.972 25.84 198.608 25.84C198.244 25.84 197.908 25.9287 197.6 26.106C197.292 26.2833 197.04 26.5447 196.844 26.89C196.657 27.226 196.564 27.6273 196.564 28.094C196.564 28.5607 196.657 28.9713 196.844 29.326C197.04 29.6713 197.292 29.9373 197.6 30.124C197.917 30.3107 198.253 30.404 198.608 30.404C198.972 30.404 199.312 30.3153 199.63 30.138C199.947 29.9513 200.199 29.69 200.386 29.354C200.572 29.0087 200.666 28.598 200.666 28.122ZM206.514 25.364C206.766 25.0093 207.111 24.7153 207.55 24.482C207.998 24.2393 208.507 24.118 209.076 24.118C209.739 24.118 210.336 24.2813 210.868 24.608C211.409 24.9347 211.834 25.4013 212.142 26.008C212.459 26.6053 212.618 27.3007 212.618 28.094C212.618 28.8873 212.459 29.592 212.142 30.208C211.834 30.8147 211.409 31.286 210.868 31.622C210.336 31.958 209.739 32.126 209.076 32.126C208.507 32.126 208.003 32.0093 207.564 31.776C207.135 31.5427 206.785 31.2487 206.514 30.894V35.696H204.554V24.244H206.514V25.364ZM210.616 28.094C210.616 27.6273 210.518 27.226 210.322 26.89C210.135 26.5447 209.883 26.2833 209.566 26.106C209.258 25.9287 208.922 25.84 208.558 25.84C208.203 25.84 207.867 25.9333 207.55 26.12C207.242 26.2973 206.99 26.5587 206.794 26.904C206.607 27.2493 206.514 27.6553 206.514 28.122C206.514 28.5887 206.607 28.9947 206.794 29.34C206.99 29.6853 207.242 29.9513 207.55 30.138C207.867 30.3153 208.203 30.404 208.558 30.404C208.922 30.404 209.258 30.3107 209.566 30.124C209.883 29.9373 210.135 29.6713 210.322 29.326C210.518 28.9807 210.616 28.57 210.616 28.094ZM218.634 32L216.002 28.696V32H214.042V21.64H216.002V27.534L218.606 24.244H221.154L217.738 28.136L221.182 32H218.634ZM223.212 23.32C222.867 23.32 222.577 23.2127 222.344 22.998C222.12 22.774 222.008 22.4987 222.008 22.172C222.008 21.8453 222.12 21.5747 222.344 21.36C222.577 21.136 222.867 21.024 223.212 21.024C223.557 21.024 223.842 21.136 224.066 21.36C224.299 21.5747 224.416 21.8453 224.416 22.172C224.416 22.4987 224.299 22.774 224.066 22.998C223.842 23.2127 223.557 23.32 223.212 23.32ZM224.178 24.244V32H222.218V24.244H224.178ZM225.61 28.094C225.61 27.31 225.764 26.6147 226.072 26.008C226.39 25.4013 226.819 24.9347 227.36 24.608C227.902 24.2813 228.504 24.118 229.166 24.118C229.67 24.118 230.151 24.23 230.608 24.454C231.066 24.6687 231.43 24.958 231.7 25.322V21.64H233.688V32H231.7V30.852C231.458 31.2347 231.117 31.5427 230.678 31.776C230.24 32.0093 229.731 32.126 229.152 32.126C228.499 32.126 227.902 31.958 227.36 31.622C226.819 31.286 226.39 30.8147 226.072 30.208C225.764 29.592 225.61 28.8873 225.61 28.094ZM231.714 28.122C231.714 27.646 231.621 27.24 231.434 26.904C231.248 26.5587 230.996 26.2973 230.678 26.12C230.361 25.9333 230.02 25.84 229.656 25.84C229.292 25.84 228.956 25.9287 228.648 26.106C228.34 26.2833 228.088 26.5447 227.892 26.89C227.706 27.226 227.612 27.6273 227.612 28.094C227.612 28.5607 227.706 28.9713 227.892 29.326C228.088 29.6713 228.34 29.9373 228.648 30.124C228.966 30.3107 229.302 30.404 229.656 30.404C230.02 30.404 230.361 30.3153 230.678 30.138C230.996 29.9513 231.248 29.69 231.434 29.354C231.621 29.0087 231.714 28.598 231.714 28.122ZM239.047 32.126C238.3 32.126 237.628 31.9627 237.031 31.636C236.433 31.3 235.962 30.8287 235.617 30.222C235.281 29.6153 235.113 28.9153 235.113 28.122C235.113 27.3287 235.285 26.6287 235.631 26.022C235.985 25.4153 236.466 24.9487 237.073 24.622C237.679 24.286 238.356 24.118 239.103 24.118C239.849 24.118 240.526 24.286 241.133 24.622C241.739 24.9487 242.215 25.4153 242.561 26.022C242.915 26.6287 243.093 27.3287 243.093 28.122C243.093 28.9153 242.911 29.6153 242.547 30.222C242.192 30.8287 241.707 31.3 241.091 31.636C240.484 31.9627 239.803 32.126 239.047 32.126ZM239.047 30.418C239.401 30.418 239.733 30.334 240.041 30.166C240.358 29.9887 240.61 29.7273 240.797 29.382C240.983 29.0367 241.077 28.6167 241.077 28.122C241.077 27.3847 240.881 26.82 240.489 26.428C240.106 26.0267 239.635 25.826 239.075 25.826C238.515 25.826 238.043 26.0267 237.661 26.428C237.287 26.82 237.101 27.3847 237.101 28.122C237.101 28.8593 237.283 29.4287 237.647 29.83C238.02 30.222 238.487 30.418 239.047 30.418ZM249.826 30.446H253.046V32H247.866V22.228H249.826V30.446ZM253.788 28.094C253.788 27.31 253.942 26.6147 254.25 26.008C254.568 25.4013 254.992 24.9347 255.524 24.608C256.066 24.2813 256.668 24.118 257.33 24.118C257.909 24.118 258.413 24.2347 258.842 24.468C259.281 24.7013 259.631 24.9953 259.892 25.35V24.244H261.866V32H259.892V30.866C259.64 31.23 259.29 31.5333 258.842 31.776C258.404 32.0093 257.895 32.126 257.316 32.126C256.663 32.126 256.066 31.958 255.524 31.622C254.992 31.286 254.568 30.8147 254.25 30.208C253.942 29.592 253.788 28.8873 253.788 28.094ZM259.892 28.122C259.892 27.646 259.799 27.24 259.612 26.904C259.426 26.5587 259.174 26.2973 258.856 26.12C258.539 25.9333 258.198 25.84 257.834 25.84C257.47 25.84 257.134 25.9287 256.826 26.106C256.518 26.2833 256.266 26.5447 256.07 26.89C255.884 27.226 255.79 27.6273 255.79 28.094C255.79 28.5607 255.884 28.9713 256.07 29.326C256.266 29.6713 256.518 29.9373 256.826 30.124C257.144 30.3107 257.48 30.404 257.834 30.404C258.198 30.404 258.539 30.3153 258.856 30.138C259.174 29.9513 259.426 29.69 259.612 29.354C259.799 29.0087 259.892 28.598 259.892 28.122ZM273.412 24.132C274.364 24.132 275.13 24.426 275.708 25.014C276.296 25.5927 276.59 26.4047 276.59 27.45V32H274.63V27.716C274.63 27.1093 274.476 26.6473 274.168 26.33C273.86 26.0033 273.44 25.84 272.908 25.84C272.376 25.84 271.952 26.0033 271.634 26.33C271.326 26.6473 271.172 27.1093 271.172 27.716V32H269.212V27.716C269.212 27.1093 269.058 26.6473 268.75 26.33C268.442 26.0033 268.022 25.84 267.49 25.84C266.949 25.84 266.52 26.0033 266.202 26.33C265.894 26.6473 265.74 27.1093 265.74 27.716V32H263.78V24.244H265.74V25.182C265.992 24.8553 266.314 24.5987 266.706 24.412C267.108 24.2253 267.546 24.132 268.022 24.132C268.629 24.132 269.17 24.2627 269.646 24.524C270.122 24.776 270.491 25.14 270.752 25.616C271.004 25.168 271.368 24.8087 271.844 24.538C272.33 24.2673 272.852 24.132 273.412 24.132ZM280.41 25.364C280.662 25.0093 281.008 24.7153 281.446 24.482C281.894 24.2393 282.403 24.118 282.972 24.118C283.635 24.118 284.232 24.2813 284.764 24.608C285.306 24.9347 285.73 25.4013 286.038 26.008C286.356 26.6053 286.514 27.3007 286.514 28.094C286.514 28.8873 286.356 29.592 286.038 30.208C285.73 30.8147 285.306 31.286 284.764 31.622C284.232 31.958 283.635 32.126 282.972 32.126C282.403 32.126 281.899 32.0093 281.46 31.776C281.031 31.5427 280.681 31.2487 280.41 30.894V35.696H278.45V24.244H280.41V25.364ZM284.512 28.094C284.512 27.6273 284.414 27.226 284.218 26.89C284.032 26.5447 283.78 26.2833 283.462 26.106C283.154 25.9287 282.818 25.84 282.454 25.84C282.1 25.84 281.764 25.9333 281.446 26.12C281.138 26.2973 280.886 26.5587 280.69 26.904C280.504 27.2493 280.41 27.6553 280.41 28.122C280.41 28.5887 280.504 28.9947 280.69 29.34C280.886 29.6853 281.138 29.9513 281.446 30.138C281.764 30.3153 282.1 30.404 282.454 30.404C282.818 30.404 283.154 30.3107 283.462 30.124C283.78 29.9373 284.032 29.6713 284.218 29.326C284.414 28.9807 284.512 28.57 284.512 28.094ZM295.261 24.244V32H293.287V31.02C293.035 31.356 292.703 31.622 292.293 31.818C291.891 32.0047 291.453 32.098 290.977 32.098C290.37 32.098 289.833 31.972 289.367 31.72C288.9 31.4587 288.531 31.0807 288.261 30.586C287.999 30.082 287.869 29.4847 287.869 28.794V24.244H289.829V28.514C289.829 29.13 289.983 29.606 290.291 29.942C290.599 30.2687 291.019 30.432 291.551 30.432C292.092 30.432 292.517 30.2687 292.825 29.942C293.133 29.606 293.287 29.13 293.287 28.514V24.244H295.261ZM301.493 24.132C302.417 24.132 303.163 24.426 303.733 25.014C304.302 25.5927 304.587 26.4047 304.587 27.45V32H302.627V27.716C302.627 27.1 302.473 26.6287 302.165 26.302C301.857 25.966 301.437 25.798 300.905 25.798C300.363 25.798 299.934 25.966 299.617 26.302C299.309 26.6287 299.155 27.1 299.155 27.716V32H297.195V24.244H299.155V25.21C299.416 24.874 299.747 24.6127 300.149 24.426C300.559 24.23 301.007 24.132 301.493 24.132ZM309.488 24.118C310.067 24.118 310.576 24.2347 311.014 24.468C311.453 24.692 311.798 24.986 312.05 25.35V24.244H314.024V32.056C314.024 32.7747 313.88 33.414 313.59 33.974C313.301 34.5433 312.867 34.9913 312.288 35.318C311.71 35.654 311.01 35.822 310.188 35.822C309.087 35.822 308.182 35.5653 307.472 35.052C306.772 34.5387 306.376 33.8387 306.282 32.952H308.228C308.331 33.3067 308.55 33.5867 308.886 33.792C309.232 34.0067 309.647 34.114 310.132 34.114C310.702 34.114 311.164 33.9413 311.518 33.596C311.873 33.26 312.05 32.7467 312.05 32.056V30.852C311.798 31.216 311.448 31.5193 311 31.762C310.562 32.0047 310.058 32.126 309.488 32.126C308.835 32.126 308.238 31.958 307.696 31.622C307.155 31.286 306.726 30.8147 306.408 30.208C306.1 29.592 305.946 28.8873 305.946 28.094C305.946 27.31 306.1 26.6147 306.408 26.008C306.726 25.4013 307.15 24.9347 307.682 24.608C308.224 24.2813 308.826 24.118 309.488 24.118ZM312.05 28.122C312.05 27.646 311.957 27.24 311.77 26.904C311.584 26.5587 311.332 26.2973 311.014 26.12C310.697 25.9333 310.356 25.84 309.992 25.84C309.628 25.84 309.292 25.9287 308.984 26.106C308.676 26.2833 308.424 26.5447 308.228 26.89C308.042 27.226 307.948 27.6273 307.948 28.094C307.948 28.5607 308.042 28.9713 308.228 29.326C308.424 29.6713 308.676 29.9373 308.984 30.124C309.302 30.3107 309.638 30.404 309.992 30.404C310.356 30.404 310.697 30.3153 311.014 30.138C311.332 29.9513 311.584 29.69 311.77 29.354C311.957 29.0087 312.05 28.598 312.05 28.122Z" fill="white"/>
</svg>
