<svg width="61" height="61" viewBox="0 0 61 61" fill="none" xmlns="http://www.w3.org/2000/svg">
<path d="M10.2929 45.6566C10.2929 42.9776 11.3571 40.4084 13.2514 38.5141C15.1457 36.6198 17.715 35.5556 20.3939 35.5556H40.5959C43.2749 35.5556 45.8441 36.6198 47.7384 38.5141C49.6327 40.4084 50.6969 42.9776 50.6969 45.6566C50.6969 46.9961 50.1648 48.2807 49.2177 49.2278C48.2705 50.175 46.9859 50.7071 45.6464 50.7071H15.3434C14.0039 50.7071 12.7193 50.175 11.7722 49.2278C10.825 48.2807 10.2929 46.9961 10.2929 45.6566Z" stroke="#EEF5FC" stroke-width="2.5" stroke-linejoin="round"/>
<path d="M30.4949 25.4546C34.6789 25.4546 38.0707 22.0628 38.0707 17.8788C38.0707 13.6948 34.6789 10.303 30.4949 10.303C26.311 10.303 22.9192 13.6948 22.9192 17.8788C22.9192 22.0628 26.311 25.4546 30.4949 25.4546Z" stroke="#EEF5FC" stroke-width="2.5"/>
</svg>
