<svg width="133" height="30" viewBox="0 0 133 30" fill="none" xmlns="http://www.w3.org/2000/svg">
<g id="logos:youtube" clip-path="url(#clip0_73_2259)">
<path id="Vector" d="M41.3508 4.63707C41.1083 3.74071 40.6352 2.92354 39.9785 2.26696C39.3219 1.61037 38.5047 1.13729 37.6083 0.894828C34.3267 0 21.1205 0 21.1205 0C21.1205 0 7.91376 0.0271552 4.63264 0.921983C3.73632 1.16448 2.91917 1.63758 2.26259 2.29417C1.606 2.95075 1.1329 3.7679 0.890402 4.66422C-0.102184 10.4948 -0.48727 19.3787 0.917558 24.9758C1.16006 25.8721 1.63316 26.6892 2.28974 27.3458C2.94633 28.0024 3.76347 28.4755 4.6598 28.718C7.94118 29.6128 21.1476 29.6128 21.1476 29.6128C21.1476 29.6128 34.3541 29.6128 37.6355 28.718C38.5318 28.4755 39.349 28.0024 40.0055 27.3458C40.6621 26.6892 41.1352 25.8721 41.3777 24.9758C42.4244 19.1372 42.7471 10.2587 41.3506 4.63733" fill="#FF0000"/>
<path id="Vector_2" d="M16.917 21.152L27.8727 14.8065L16.917 8.46075V21.152Z" fill="white"/>
<path id="Vector_3" d="M127.044 8.59657C128.481 8.59657 129.566 8.8676 130.325 9.38278C131.085 9.89812 131.627 10.7117 131.953 11.8236C132.278 12.9354 132.414 14.4538 132.414 16.4064V19.5794H125.444V20.5554L125.553 23.2402C125.634 23.8368 125.77 24.2708 125.987 24.5418C126.204 24.8131 126.556 24.9486 127.017 24.9486C127.641 24.9486 128.075 24.7048 128.292 24.2167C128.536 23.7285 128.644 22.9148 128.671 21.803L132.278 22.02C132.305 22.1827 132.305 22.3997 132.305 22.6707C132.305 24.3792 131.844 25.6539 130.895 26.4944C129.946 27.3349 128.644 27.7689 126.936 27.7689C124.875 27.7689 123.438 27.1182 122.624 25.8437C121.811 24.569 121.377 22.5621 121.377 19.8776V16.5962C121.469 11.9863 122.279 8.61002 127.044 8.59657ZM76.9029 8.94907V22.5352C76.9029 23.3488 76.9841 23.9454 77.1739 24.2979C77.559 25.0518 78.557 24.8592 79.0994 24.4878C79.4124 24.276 79.6647 23.9863 79.8315 23.6473V8.94881H83.9806V27.4704H80.7264L80.3739 25.1925H80.2926C79.3978 26.901 78.0688 27.7686 76.3063 27.7686C73.5933 27.7619 72.9295 25.8073 72.7714 23.8221L72.7611 23.6822C72.7415 23.3815 72.7301 23.0804 72.7267 22.7791V8.94907H76.9029ZM98.2991 8.94907V22.5352C98.2991 23.3488 98.3803 23.9454 98.5701 24.2979C98.9555 25.0518 99.9533 24.8592 100.496 24.4878C100.809 24.276 101.061 23.9863 101.228 23.6473V8.94881H105.377V27.4704H102.123L101.77 25.1925H101.689C100.794 26.901 99.465 27.7686 97.7025 27.7686C94.9896 27.7619 94.3257 25.8073 94.1677 23.8221L94.1573 23.6822C94.1377 23.3815 94.1263 23.0804 94.1229 22.7791V8.94907H98.2991ZM64.8623 8.59657C66.2183 8.59657 67.3301 8.8676 68.1437 9.43709C68.9571 10.0066 69.5808 10.8745 69.9605 12.0675C70.3402 13.2608 70.53 14.8606 70.53 16.8404V19.5248C70.53 21.5046 70.3402 23.0775 69.9605 24.2705C69.5808 25.4641 68.9842 26.3317 68.1437 26.9012C67.3032 27.4435 66.1639 27.7417 64.7539 27.7417C63.2894 27.7689 62.1504 27.4707 61.3099 26.9284C60.4694 26.3589 59.8725 25.491 59.5202 24.2979C59.1675 23.1047 59.0048 21.5317 59.0048 19.5523V16.8673C59.0048 14.8875 59.1946 13.2605 59.6014 12.0673C60.0083 10.8471 60.6318 9.97916 61.4997 9.43709C62.3674 8.8945 63.4792 8.59631 64.8623 8.59631M111.885 1.16614V10.9286H111.912C112.292 10.2236 112.78 9.65407 113.458 9.2201C114.091 8.79456 114.837 8.56797 115.6 8.56941C116.604 8.56941 117.363 8.84045 117.933 9.35562C118.502 9.89821 118.909 10.7387 119.153 11.9048C119.389 13.0345 119.524 14.5968 119.532 16.567L119.532 16.7592V19.6878C119.532 22.4266 119.18 24.4606 118.529 25.7623C117.851 27.0639 116.821 27.7148 115.41 27.7148C114.624 27.7148 113.919 27.525 113.268 27.1725C112.693 26.8369 112.216 26.356 111.885 25.778L111.831 25.6808H111.75L111.316 27.4436H107.872V1.1664L111.885 1.16614ZM95.2888 2.11528V5.4776H91.1669V27.4704H87.0993V5.47786H82.9502V2.11553L95.2888 2.11528ZM50.5709 2.11528L50.5735 2.12562C50.6131 2.30174 51.1614 4.73924 51.7645 7.57915L51.812 7.80415L51.8839 8.14424L51.932 8.3726L51.9561 8.48717L52.0042 8.71683L52.0283 8.83191L52.0761 9.06234L52.1459 9.39933C52.5533 11.3659 52.942 13.3381 53.1745 14.7523H53.2831C53.5058 13.4837 53.8293 11.8604 54.1743 10.2029L54.2648 9.76993C54.3102 9.55303 54.3558 9.33648 54.4019 9.12028L54.4727 8.78484C54.9412 6.58834 55.4237 4.39484 55.9202 2.2045L55.928 2.16959L55.9404 2.11528H60.0895L55.2895 19.2269V27.4436H51.1947V19.2538H51.1676L46.4219 2.11502L50.5709 2.11528ZM64.7808 11.4709C64.2114 11.4709 63.8317 11.7693 63.5878 12.3931C63.3439 13.0169 63.2353 13.9658 63.2353 15.2948V21.0709C63.2353 22.4268 63.3437 23.43 63.5607 24.0269C63.7777 24.6235 64.1845 24.9217 64.7808 24.9217C65.3503 24.9217 65.7571 24.6235 66.0013 24.0269C66.2454 23.43 66.3538 22.4268 66.3538 21.0709V15.2946C66.3538 13.9658 66.2451 12.9895 66.0013 12.3929C65.7571 11.7693 65.3503 11.4709 64.7808 11.4709ZM112.617 12.0135C112.287 12.3186 112.052 12.6949 111.912 13.1654L111.885 13.2608V23.7825C112.221 24.352 112.699 24.7317 113.539 24.7588C113.973 24.7588 114.326 24.5961 114.597 24.2708C114.868 23.9454 115.058 23.403 115.166 22.6436C115.271 21.9148 115.325 20.911 115.329 19.6322V17.0573C115.329 15.593 115.275 14.4812 115.194 13.6948C115.085 12.9083 114.95 12.3388 114.705 12.0135C114.234 11.3354 113.214 11.3436 112.617 12.0135ZM126.963 11.3897C126.502 11.4167 126.176 11.5523 125.987 11.7965C125.77 12.0675 125.634 12.4743 125.553 13.071C125.473 13.6554 125.445 15.6986 125.444 15.7803V17.1117H128.481V15.9375V15.96C128.48 16.3704 128.471 15.7218 128.452 14.9255L128.45 14.8185C128.433 14.1186 128.408 13.3384 128.373 13.071C128.292 12.4472 128.156 12.0132 127.939 11.7693C127.722 11.5252 127.397 11.3897 126.963 11.3897" fill="#282828"/>
</g>
<defs>
<clipPath id="clip0_73_2259">
<rect width="132.414" height="30" fill="white"/>
</clipPath>
</defs>
</svg>
